<svg width="16" height="16" viewBox="0 0 16 16" fill="none" xmlns="http://www.w3.org/2000/svg">
<path d="M11.54 1.52637C13.5048 1.52656 15.2 3.26536 15.2002 5.54199C15.2002 6.45237 14.9103 7.28173 14.4346 7.96484L14.4307 7.96875L14.374 8.04883C14.2213 8.26525 14.031 8.45427 13.7754 8.67773L13.7627 8.68848L13.751 8.7002L7.98633 14.1689L1.85938 8.37305C1.21153 7.65329 0.799805 6.66257 0.799805 5.54199C0.799998 3.26536 2.49518 1.52656 4.45996 1.52637C5.61858 1.52637 6.65856 2.12705 7.3457 3.10449L8 4.03516L8.6543 3.10449C9.34144 2.12705 10.3814 1.52637 11.54 1.52637Z" fill="#5551F5" stroke="#5551F5" stroke-width="1.6"/>
</svg>
